/* XPM */
static char *bitcoin64[] = {
/* columns rows colors chars-per-pixel */
"71 70 70 1 ",
"  c #ED2428",
". c #ED2928",
"X c #ED2B28",
"o c #ED2E29",
"O c #ED3229",
"+ c #ED3529",
"@ c #EE3829",
"# c #EE3C29",
"$ c #EE3F29",
"% c #EE4129",
"& c #EE4629",
"* c #EE482A",
"= c #EF4B2A",
"- c #EF4D2A",
"; c #EF4E2B",
": c #EF512B",
"> c #EF532B",
", c #F0552C",
"< c #F0582C",
"1 c #F0592C",
"2 c #F05B2C",
"3 c #F15E2C",
"4 c #F1602D",
"5 c #F1622C",
"6 c #F1642C",
"7 c #F1662D",
"8 c #F1682D",
"9 c #F26A2E",
"0 c #F26B2E",
"q c #F26E2E",
"w c #F26F2F",
"e c #F2712F",
"r c #F2732F",
"t c #F27530",
"y c #F37630",
"u c #F47930",
"i c #F47A30",
"p c #F47D30",
"a c #F47E31",
"s c #F48031",
"d c #F58231",
"f c #F58332",
"g c #F58432",
"h c #F58732",
"j c #F68832",
"k c #F68933",
"l c #F68B33",
"z c #F68D33",
"x c #F68F34",
"c c #F79034",
"v c #F79234",
"b c #F79435",
"n c #F79535",
"m c #F79735",
"M c #F89936",
"N c #F89A36",
"B c #F89C36",
"V c #F99E37",
"C c #F99F37",
"Z c #F9A138",
"A c #FAA339",
"S c #FAA439",
"D c #FAA63A",
"F c #FAA83A",
"G c #FBA93A",
"H c #FBAB3B",
"J c #FBAD3B",
"K c #FBAE3C",
"L c #FCB03C",
"P c None",
/* pixels */
"PPPPPPPPPPPPPPPPPPPPPPPPPPPPLLLLPPPPPPPPPPPPPPPPPPPPPPPPPPPPPPPPPPPPPPP",
"PPPPPPPPPPPPPPPPPPPPPPPPPPKPPKKKKKKKKKKKPPPPPPPPPPPPPPPPPPPPPPPPPPPPPPP",
"PPPPPPPPPPPPPPPPPPPPPPPPPKPPKPKPPKJKJKJJKJKKJJPPPPPPPPPPPPPPPPPPPPPPPPP",
"PPPPPPPPPPPPPPPPPPPPPPPPFPPKPKPPGPJGGGKGHPGPGKGKPPPPPPPPPPPPPPPPPPPPPPP",
"PPPPPPPPPPPPPPPPPPPPGGGGGGHPPGPFPHFFGGGGPFPHGHPHGPPPPPPPPPPPPPPPPPPPPPP",
"PPPPPPPPPPPPPPPPPPPFSGGGPPFPGPFPPFPFGGSGFFFFGSGFSGFPPPPPPPPPPPPPPPPPPPP",
"PPPPPPPPPPPPPPPPPPDDFPPSSFPDSPDPSPDPDDGSDDDDSPSFGSSFPPPPPPPPPPPPPPPPPPP",
"PPPPPPPPPPPPPPPPPSSSSSSSPSSSPSSSPSSSPPSSSSSSSSSSSSSSSPPPPPPPPPPPPPPPPPP",
"PPPPPPPPPPPPPPPPZZSZPPZSSSZZSZSZSSSPPZSSZSSZZZPSSSPZZSZPPPPPPPPPPPPPPPP",
"PPPPPPPPPPPPPPPZZZPPPZZPZZZVZZZCZZPPVCZZZZZZZZZZZZZZZZZVPPPPPPPPPPPPPPP",
"PPPPPPPPPPPPPCCCCCCCZVZCVZCCZCCCZVZVCCCCVZZVCCCCVZZVZVCCZPPPPPPPPPPPPPP",
"PPPPPPPPPPPPCCCCCNCCPVCCVVCCCCCCVVVVCCCCVVVVNCCCVVVVVVCCVVVPPPPPPPPPPPP",
"PPPPPPPPPPPNNCNNNCNCNNCNCNNCCNCNNCCNNCCNCNCNNCNCCNNPCNCPBNCNPPPPPPPPPPP",
"PPPPPPPPPPNNNNNNNPPNNNNNNNNNNNNNNNNNNNNNNNNPPNNNNNNNNNNNNNNNNNPPPPPPPPP",
"PPPPPPPPPNNNNNNNNNNNNNNNNNNnPPPPPPPPPPPPPPPPPPNNNNNNNnNPNNPNNPPNPPPPPPP",
"PPPPPPPPmmmmPmmmmPPmmmmNnnPPPPPPPPPPPPPPPPPPPPPPmNnnmmmmmmmmmmPPnPPPPPP",
"PPPPPPPPnnnnnnnnnnnnnnnnPPPPPPPPPPPPPPPPPPPPPPPPPmmvnnnnnnPnnnnnPnPPPPP",
"PPPPPPPmnnnnPnnnnnnnncPPPPPPPPPPPPPPPPPPPPPPPPPPPPmvnnncnnnnPnPPnnPPPPP",
"PPPPPPvvccvvccnccccncPPPPPPPPPPPPPPPPPPPPPPPPPPPPPPvnccccnPccnccPcPPPPP",
"PPPPPPcxcPxvcccccccPPPPPPPPPPPPPPPPPPPPPPPPPPPPPPPPPcccxcccccPPPcxvPPPP",
"PPPPPPxxxxxxxxxxvPPPPPPPPPPPPPPPPPPPPPPPPPPPPPPPPPPPPxxxxxvPcvxPPxxPPPP",
"PPPPPzzzPxzzzzlxPPPPPPPPPPPPPPPPPPPPPPPPPPPPPPPPPPPPPPzzzlxkzPPPzxzPPPP",
"PPPPPkllxkkkllkxPPPPPPPPPPPPPPPPPPPPPPPPPPPPPPPPPPPPPPkxllkxlllPPkxkPPP",
"PPPPPjllkkkhjlkPPPPPPPPPPPPPPPPPPPPPPPPPPPPPPPPPPPPPPPPkjlhjllPPkkkkPPP",
"PPPPhkjjjjjjhkjPPPPPPPPPPPPPPPPPPPPPPPPPPPPPPPPPPPPPPPPjjjhkjjjjkjjjPPP",
"PPPPhhjjjPjjhhjPPPPPPPPPPPPPPPPPPPPPPPPPPPPPPPPPPPPPPPPjjjhPPjjjhhPjPPP",
"PPPjjddjdPffhfjPPPPPPPPPPPPPPPPPPPPPPPPPPPPPPPPPPPPPPPPjdffhPPfffPdjjPP",
"PPPddPdPffffdddPPPPPPPPPPPPPPPPPPPPPPPPPPPPPPPPPPPPPPPPPdfffdPffffdddPP",
"PPPdPdPdddffssPPPPPPPPPPPPPPPPPPPPPPPPPPPPPPPPPPPPPPPPPPddddPdddPddddPP",
"PPadaddaafafssPPPPPPPPPPPPPPPPPPPPPPPPPPPPPPPPPPPPPPPPPPaafPdaafdPadadP",
"PPaPaPaaaaaapaPPPPPPPPPPPPPPPPPPPPPPPPPPPPPPPPPPPPPPPPPPaaaaaaaaaPaPaaP",
"PPaaPaapaaaippPPPPPPPPPPPPPPPPPPPPPPPPPPPPPPPPPPPPPPPPPPPpppiaaaPaPaPaP",
"PPiiiiiiiiiiiiPPPPPPPPPPPPPPPPPPPPPPPPPPPPPPPPPPPPPPPPPPPiiiiiiiiPiiPiP",
"PPiiiPiiiiiyiiPPPPPPPPPPPPPPPPPPPPPPPPPPPPPPPPPPPPPPPPPPPiyiiiyiiiiiiiP",
"PPyyPyyPyyyyyyPPPPPPPPPPPPPPPPPPPPPPPPPPPPPPPPPPPPPPPPPPPyyyyyyyPyyPyyP",
"PyPPyyyyyryyryPPPPPPPPPPPPPPPPPPPPPPPPPPPPPPPPPPPPPPPPPPPPyyryyyyPyyPyP",
"PrPrrrrrrrrrrrPPPPPPPPPPPPPPPPPPPPPPPPPPPPPPPPPPPPPPPPPPPPrrrrrrPrrrrrP",
"rPrPPrrwrwwrrrPPPPPPPPPPPPPPPPPPPPPPPPPPPPPPPPPPPPPPPPPPPPwrrwwrrrrPrPP",
"wPwPwPPwwwwwwwPPPPPPPPPPPPPPPPPPPPPPPPPPPPPPPPPPPPPPPPPPPPwwwwwwwPwwqwP",
"qqPqqPqPqqqwqqqPPPPPPPPPPPPPPPPPPPPPPPPPPPPPPPPPPPPPPPPPPPqqqqqqqqqqqqP",
"00P0P0PP0000000PPPPPPPPPPPPPPPPPPPPPPPPPPPPPPPPPPPPPPPPPP00000P0000000P",
"P00PP0P0P000000PPPPPPPPPPPPPPPPPPPPPPPPPPPPPPPPPPPPPPPPPP00000000P000PP",
"P07P0P0P077P7707PPPPPPPPPPPPPPPPPPPPPPPPPPPPPPPPPPPPPPPPP0777077P7077PP",
"PP777P7P77P7P777PPPPPPPPPPPPPPPPPPPPPPPPPPPPPPPPPPPPPPPPP77777777777PPP",
"PP7555P7P7P75757PPPPPPPPPPPPPPPPPPPPPPPPPPPPPPPPPPPPPPPP5757P7565757PPP",
"PPP555555PP555555PPPPPPPPPPPPPPPPPPPPPPPPPPPPPPPPPPPPPPP5555P555555PPPP",
"PPP55335345P53535PPPPPPPPPPPPPPPPPPPPPPPPPPPPPPPPPPPPPPP53533553355PPPP",
"PPPP33333333333333PPPPPPPPPPPPPPPPPPPPPPPPPPPPPPPPPPPPP333333333333PPPP",
"PPPP31122211312213PPPPPPPPPPPPPPPPPPPPPPPPPPPPPPPPPPPPP13122222213PPPPP",
"PPPPP111P111111111PPPPPPPPPPPPPPPPPPPPPPPPPPPPPPPPPPPP111111111P11PPPPP",
"PPPPP1,11111,11111PPPPPPPPPPPPPPPPPPPPPPPPPPPPPPPPPPP11,11,11P111PPPPPP",
"PPPPPP,,P,P,,,,,,,,PPPPPPPPPPPPPPPPPPPPPPPPPPPPPPPP,,,,,,,,,,,,,,PPPPPP",
"PPPPPP:,>>,:,>>>,>>,PPPPPPPPPPPPPPPPPPPPPPPPPPPPPP,:,>,>>>P,P>>>>PPPPPP",
"PPPPPPP:>P>:>>:=::>=::PPPPPPPPPPPPPPPPPPPPPPPPPP::::>>::>>>:>>:=PPPPPPP",
"PPPPPPP;=;::=P;;P;;;-;--PPPPPPPPPPPPPPPPPPPPPPP-;;;;=:;:=;P=P:;PPPPPPPP",
"PPPPPPPP===P=>==--------=PPPPPPPPPPPPPPPPPPPP---;;========>====PPPPPPPP",
"PPPPPPPPP====P=PP==========PPPPPPPPPP===============P===P=P*-=PPPPPPPPP",
"PPPPPPPPPP************************************************P**PPPPPPPPPP",
"PPPPPPPPPPP****P*&****&&***&*******&***P*&**&&&&%&**********PPPPPPPPPPP",
"PPPPPPPPPPPPP%%%%%$%$%$%$$%%%$%%%%$$$%P%%%$%$%%%%%%P$$%%%%PPPPPPPPPPPPP",
"PPPPPPPPPPPPPP$$%$$$$$$$$$$$%$$%$$$$PP$$%$$$$%$$$P$$%$$$$PPPPPPPPPPPPPP",
"PPPPPPPPPPPPPPPP@$@$P$@$####@$$@@$PP@$@$@$$@$@P$$#PP@$$@PPPPPPPPPPPPPPP",
"PPPPPPPPPPPPPPPPPP@@@P@@+P@@@P@@@@@PP@@@@@@@+@@@P@@@@@@PPPPPPPPPPPPPPPP",
"PPPPPPPPPPPPPPPPPPP++++P+@O@P+++P++++P+++P+++P++++PP++PPPPPPPPPPPPPPPPP",
"PPPPPPPPPPPPPPPPPPPPPOOOOOPOOOOPOPOOOOPOOOPOOOOPOOOOOPPPPPPPPPPPPPPPPPP",
"PPPPPPPPPPPPPPPPPPPPPPoooooPoPoPoooooooPPoooPoooooooPPPPPPPPPPPPPPPPPPP",
"PPPPPPPPPPPPPPPPPPPPPPPXPPXPXXPXPXXXXXXPXPXXXXPXXXXPPPPPPPPPPPPPPPPPPPP",
"PPPPPPPPPPPPPPPPPPPPPPPPXPPXP.XXXP.XXXPXPXPP..XXXPPPPPPPPPPPPPPPPPPPPPP",
"PPPPPPPPPPPPPPPPPPPPPPPPP  . P. .      .. .   .PPPPPPPPPPPPPPPPPPPPPPPP",
"PPPPPPPPPPPPPPPPPPPPPPPPPPPPPPPPPPPPPPPPPPPPPPPPPPPPPPPPPPPPPPPPPPPPPPP"
};
