/* XPM */
static char *bitcoin16[] = {
/* columns rows colors chars-per-pixel */
"18 18 18 1 ",
"  c #ED3429",
". c #EE4129",
"X c #EF4C2A",
"o c #F0552C",
"O c #F05D2C",
"+ c #F1662D",
"@ c #F26D2E",
"# c #F27530",
"$ c #F47C30",
"% c #F58332",
"& c #F68933",
"* c #F79034",
"= c #F79735",
"- c #F99D37",
"; c #FAA439",
": c #FBAB3B",
"> c #FCB03C",
", c None",
/* pixels */
",,,,,,,>>>>,,,,,,,",
",,,,,::::::::,,,,,",
",,,,;;;;;;;;;;,,,,",
",,,-------------,,",
",,====,,,,,,=====,",
",****,,,,,,,,****,",
",&&&,,,,,,,,,,&&&,",
",%%%,,,,,,,,,,%%%%",
",$$$,,,,,,,,,,$$$$",
",###,,,,,,,,,,,###",
",@@@,,,,,,,,,,@@@@",
",++++,,,,,,,,,+++,",
",OOOO,,,,,,,,OOOO,",
",,oooo,,,,,,oooo,,",
",,XXXXXXXXXXXXXX,,",
",,,,..........,,,,",
",,,,,        ,,,,,",
",,,,,,,,,,,,,,,,,,"
};
