/* XPM */
static char *bitcoin32[] = {
/* columns rows colors chars-per-pixel */
"36 35 36 1 ",
"  c #ED2628",
". c #ED2B28",
"X c #ED3229",
"o c #EE3929",
"O c #EE3F29",
"+ c #EE4629",
"@ c #EF4B2A",
"# c #EF4F2B",
"$ c #EF532B",
"% c #F0582C",
"& c #F05C2C",
"* c #F1612C",
"= c #F1642D",
"- c #F1682D",
"; c #F26C2E",
": c #F2702F",
"> c #F27330",
", c #F47730",
"< c #F47B30",
"1 c #F47E31",
"2 c #F58231",
"3 c #F58532",
"4 c #F68933",
"5 c #F68B33",
"6 c #F68F34",
"7 c #F79234",
"8 c #F79635",
"9 c #F89936",
"0 c #F89C37",
"q c #F9A038",
"w c #FAA339",
"e c #FAA63A",
"r c #FBAA3B",
"t c #FBAE3B",
"y c #FCB03C",
"u c None",
/* pixels */
"uuuuuuuuuuuuuuyyyyuuuuuuuuuuuuuuuuuu",
"uuuuuuuuuuuuuttttttttttuuuuuuuuuuuuu",
"uuuuuuuuuurrrrrrrrrrrrrrruuuuuuuuuuu",
"uuuuuuuuueeeeeeeeeeeeeeeeeuuuuuuuuuu",
"uuuuuuuuqewweqeqwwwwwwwwwwwwuuuuuuuu",
"uuuuuuuqqqqqqqqqqqqqqqqqqqqqquuuuuuu",
"uuuuu0000000000000000000000000uuuuuu",
"uuuu9999999999uuuuuuuuu999999999uuuu",
"uuuu88888888uuuuuuuuuuuuu88888888uuu",
"uuu7777777uuuuuuuuuuuuuuuu7777777uuu",
"uuu666676uuuuuuuuuuuuuuuuuu6666666uu",
"uu555644uuuuuuuuuuuuuuuuuuu5555555uu",
"uu553444uuuuuuuuuuuuuuuuuuuu554455uu",
"uu333333uuuuuuuuuuuuuuuuuuuu33u2333u",
"u222222uuuuuuuuuuuuuuuuuuuuu2222222u",
"u111111uuuuuuuuuuuuuuuuuuuuu1111111u",
"u<<<<<<uuuuuuuuuuuuuuuuuuuuu<<<<<<<u",
"u,,,,,,uuuuuuuuuuuuuuuuuuuuuu,,,,,,u",
"u>>>>>>uuuuuuuuuuuuuuuuuuuuuu>>>>>>u",
":::::::uuuuuuuuuuuuuuuuuuuuuu::>:::u",
"::;;:;;:uuuuuuuuuuuuuuuuuuuuu:;;:;;u",
"u=-=--=-uuuuuuuuuuuuuuuuuuuu---=--=u",
"u========uuuuuuuuuuuuuuuuuuu======uu",
"uu*******uuuuuuuuuuuuuuuuuuu******uu",
"uu&&&&&&&uuuuuuuuuuuuuuuuuu&&&&&&uuu",
"uuu%%%%%%uuuuuuuuuuuuuuuuu%%%%%%%uuu",
"uuu$$$$$$$$uuuuuuuuuuuuuu$$$$$$$uuuu",
"uuuu###$####uuuuuuuuuuu#########uuuu",
"uuuuu@@@@@@@@@uu@@@@@@@@@@@@@@@uuuuu",
"uuuuuu++++++++++++++++++++++++uuuuuu",
"uuuuuuuOOOOOOOOOOOOOOOOOOOOOOuuuuuuu",
"uuuuuuuuuooooooooooooooooooouuuuuuuu",
"uuuuuuuuuuuXXXXXXXXXXXXXXXuuuuuuuuuu",
"uuuuuuuuuuuu.............uuuuuuuuuuu",
"uuuuuuuuuuuuu          uuuuuuuuuuuuu"
};
